<svg xmlns="http://www.w3.org/2000/svg" width="30" height="26" viewBox="0 0 30 26">
  <path id="bank" d="M15,0,30,5.571V7.429H28a.837.837,0,0,1-.32.653,1.125,1.125,0,0,1-.758.275H3.078a1.125,1.125,0,0,1-.758-.275A.837.837,0,0,1,2,7.429H0V5.571ZM4,9.286H8V20.429h2V9.286h4V20.429h2V9.286h4V20.429h2V9.286h4V20.429h.922a1.125,1.125,0,0,1,.758.275.837.837,0,0,1,.32.653v.929H2v-.929a.837.837,0,0,1,.32-.653,1.125,1.125,0,0,1,.758-.275H4ZM28.922,23.214a1.125,1.125,0,0,1,.758.275.837.837,0,0,1,.32.653V26H0V24.143a.837.837,0,0,1,.32-.653,1.125,1.125,0,0,1,.758-.275H28.922Z" fill="#19286b"/>
</svg>
