<svg xmlns="http://www.w3.org/2000/svg" width="6.67" height="37.417" viewBox="0 0 6.67 37.417">
  <g id="arrow_top_btm" transform="translate(-1214.165 -2375.292)">
    <path id="fi-sr-angle-small-down" d="M11.531,8.054a.476.476,0,0,0-.674,0L8.672,10.239a.486.486,0,0,1-.674,0L5.813,8.054a.476.476,0,1,0-.674.674l2.185,2.185a1.429,1.429,0,0,0,2.022,0l2.185-2.185A.476.476,0,0,0,11.531,8.054Z" transform="translate(1209.165 2401.377)" fill="#fff"/>
    <path id="fi-sr-angle-small-down-2" data-name="fi-sr-angle-small-down" d="M11.531,11.191a.476.476,0,0,1-.674,0L8.672,9.006a.486.486,0,0,0-.674,0L5.813,11.191a.476.476,0,1,1-.674-.674L7.324,8.333a1.429,1.429,0,0,1,2.022,0l2.185,2.185A.476.476,0,0,1,11.531,11.191Z" transform="translate(1209.165 2367.377)" fill="#fff"/>
  </g>
</svg>
