<svg xmlns="http://www.w3.org/2000/svg" width="28.284" height="28.284" viewBox="0 0 28.284 28.284">
  <path id="fi-rr-cross-small" d="M25.242,6.172h0a1.589,1.589,0,0,0-2.247,0L15.707,13.46,8.42,6.172a1.589,1.589,0,0,0-2.247,0h0a1.589,1.589,0,0,0,0,2.247l7.288,7.288L6.172,22.995a1.589,1.589,0,0,0,0,2.247h0a1.589,1.589,0,0,0,2.247,0l7.288-7.288,7.288,7.288a1.589,1.589,0,0,0,2.247,0h0a1.589,1.589,0,0,0,0-2.247l-7.288-7.288L25.242,8.42A1.589,1.589,0,0,0,25.242,6.172Z" transform="translate(14.142 -8.071) rotate(45)" fill="#19286b"/>
</svg>
